<?xml version="1.0" standalone="no"?>
<!DOCTYPE svg PUBLIC "-//W3C//DTD SVG 20010904//EN" "http://www.w3.org/TR/2001/REC-SVG-20010904/DTD/svg10.dtd">
<!-- Created using Krita: https://krita.org -->
<svg xmlns="http://www.w3.org/2000/svg" 
    xmlns:xlink="http://www.w3.org/1999/xlink"
    xmlns:krita="http://krita.org/namespaces/svg/krita"
    xmlns:sodipodi="http://sodipodi.sourceforge.net/DTD/sodipodi-0.dtd"
    width="288pt"
    height="78.48pt"
    viewBox="0 0 288 78.48">
<defs/>
<path id="shape0" transform="matrix(0.999999957225619 0 0 0.999999957225619 182.499982290591 17.1402585057805)" fill="#071a03" fill-rule="evenodd" stroke="#071a03" stroke-width="1.1352" stroke-linecap="round" stroke-linejoin="round" d="M8.60817 43.3507C9.69187 43.9889 10.4191 43.2012 11.3246 43.1266C13.7867 43.9329 13.1836 42.5935 14.1072 42.3227C14.8619 42.775 15.6377 43.3009 16.0853 42.6786C17.1702 43.5887 17.94 43.2384 18.7163 42.9141C19.7303 43.5047 20.5896 43.4768 21.449 43.4488C22.3005 43.2705 23.1519 43.5676 24.0034 42.9141C24.6498 43.9752 25.4902 44.7209 27.3896 43.7458C30.549 44.6097 30.5211 43.6806 31.3104 43.2111C33.8461 43.9557 33.3604 42.9738 33.8649 42.5577C34.756 42.5577 35.7065 43.0923 36.5382 42.5577C37.1916 42.2804 38.7956 42.5379 38.4986 41.726C39.4095 41.1121 40.6753 41.6271 40.9921 40.8945C41.4402 40.1572 42.2601 38.7218 41.6075 38.1418L40.3798 37.1121C40.261 36.1307 39.7563 36.003 39.0134 35.7061C38.8662 35.6474 38.2707 35.1444 37.6075 35.0923C36.8984 35.0367 36.102 35.44 35.3698 35.6467C33.6324 36.1378 32.3781 36.5471 32.1421 36.7557L29.2223 36.708L24.3401 35.8052L24.1421 30.221L24.2609 28.6764C24.9597 28.6342 26.2836 28.646 26.9827 28.6038C27.4579 28.683 28.1317 28.5246 28.6069 28.6038L30.0911 28.5477C31.1807 28.4548 32.4287 28.5429 32.8154 27.6467C33.9883 27.8752 34.141 27.4916 34.0035 26.9338C34.3918 26.328 33.8104 26.2442 33.5763 25.9734C32.8784 25.1165 32.338 25.7548 31.7347 25.7952C31.1361 25.76 30.7256 25.5369 29.8931 25.7358C28.8657 24.4838 27.663 25.2459 26.5417 25.0732L25.6074 25.211C24.9351 24.7822 24.3993 25.2402 23.8252 25.4487L23.9092 22.844L23.944 20.7952L24.1817 18.8942L24.3005 18.2407C26.8228 18.8229 29.3002 19.5971 32.0233 18.6565C33.4863 19.5524 34.9413 20.2668 36.3005 18.7754C37.9213 19.9958 38.8421 19.466 39.6273 18.5971C41.5207 17.6465 42.0395 16.3521 41.8253 14.8744C43.8793 13.8029 42.7375 12.8995 43.0128 11.9215C42.7753 11.1038 43.9044 10.3455 43.0729 9.52784C44.9115 8.73576 43.6758 7.94368 43.3699 7.15159C44.1654 6.51792 44.1116 5.88426 43.4293 5.25059C42.636 2.5845 41.4265 2.62564 40.2213 2.63671C39.3699 2.77533 38.5184 2.91394 37.6669 3.05256C37.2114 2.59711 36.756 2.14166 36.3005 1.68621C34.558 0.83772 32.8154 0.775551 31.0728 1.27037C28.5469 -0.414981 26.1008 0.212444 23.647 0.616897C22.5526 -0.530154 21.6285 0.195492 20.6767 0.616897C19.4999 0.5634 18.1491 -0.591848 17.1717 0.616897C16.4984 0.696105 15.8812 0.439262 15.1519 0.854522C13.6366 -0.0166252 13.0972 0.797766 12.3598 1.27037C10.2164 0.706301 8.83818 1.6727 7.25087 2.22087C5.78838 2.42632 4.78902 3.0947 4.10233 4.00306C2.85488 3.52804 2.00491 4.11294 1.42905 5.42881C-0.687512 7.106 0.620924 8.29391 0.359739 9.70606C-0.317764 11.396 0.0415755 12.8677 0.775583 14.2605C-0.00119108 14.9269 0.806514 15.3953 1.13202 15.9239C1.7507 16.6032 2.40333 17.1673 3.38946 16.5971C4.24095 17.9522 5.09244 17.1498 5.94393 17.0724C6.99388 18.1371 8.13087 18.2879 9.33009 17.7852C10.4606 18.962 11.6299 19.0118 12.8351 18.0229C14.7032 19.2476 14.7004 17.8996 15.5083 17.6664C16.5118 18.4034 17.5798 18.1084 18.6569 17.6664L19.0331 20.5971L19.0727 22.8942L19.0354 24.9653L18.8572 25.7376L16.8374 26.0346C16.2359 25.9383 15.6345 25.8421 15.0331 25.7457L13.7114 25.6597C13.0131 26.0104 12.372 25.6759 11.6736 26.0625C11.3265 25.9158 10.7501 25.9772 10.5974 27.6665L10.8945 28.3992C11.2283 28.5728 11.5309 29.351 11.8648 28.7754C12.2303 29.7271 13.0164 28.7929 13.6187 28.8447C14.1025 29.4815 14.7943 29.0084 15.4246 28.8637C16.58 29.3206 18.2989 28.9764 19.5579 28.7604L19.4405 30.4487L19.4739 32.2609L19.548 35.7854C18.8188 36.0713 17.1036 37.1342 17.1123 37.5675C15.9433 36.859 15.136 37.3562 14.439 38.221C13.2311 37.7656 12.0232 37.3101 10.8152 36.8547C10.0034 36.7557 9.19147 36.6566 8.37959 36.5576L5.92413 36.32C4.20161 35.3466 2.20879 37.6142 2.26074 38.9339C1.23169 39.0182 1.24947 39.3642 1.01321 39.6468C0.0567297 40.4586 1.30756 40.4388 1.36965 41.2507L2.20133 42.7359L3.21124 43.4488C4.80235 44.5984 5.7063 43.6864 6.95383 43.8052C7.63772 43.7862 8.518 43.9634 8.60817 43.3507Z"/><text id="shape01" krita:useRichText="true" transform="matrix(0.999999957225619 0 0 0.999999957225619 10.4928181212785 61.2399990589636)" fill="#d6ae2f" stroke="#000000" stroke-opacity="0" stroke-width="0" stroke-linecap="square" stroke-linejoin="bevel" font-family="OpenSymbol" font-size="48" font-size-adjust="0.482422" font-stretch="normal" letter-spacing="0" word-spacing="0"><tspan x="0">D CTAT RS</tspan></text><path id="shape02" transform="matrix(0.494697342181949 0.869065276080777 -0.869065276080777 0.494697342181949 145.218451934705 23.108186140437)" fill="#071a03" fill-rule="evenodd" stroke="#071a03" stroke-width="1.1352" stroke-linecap="square" stroke-linejoin="miter" stroke-miterlimit="1.91999995708466" d="M3.9274 0.1212L3.9869 0.2845L4.0499 0.4324L4.1161 0.5655L4.1854 0.6843L4.2575 0.7896L4.332 0.8818L4.4086 0.9617L4.4872 1.0298L4.5674 1.0868L4.6489 1.1332L4.7315 1.1696L4.8148 1.1968L4.8987 1.2152L4.9827 1.2256L5.0667 1.2284L5.1504 1.2244L5.2334 1.2141L5.3156 1.1981L5.3965 1.1771L5.476 1.1517L5.5538 1.1225L5.6295 1.09L5.703 1.055L5.7738 1.0179L5.8418 0.9795L5.9067 0.9404L5.9682 0.9011L6.0259 0.8622L6.0797 0.8244L6.1293 0.7883L6.1743 0.7545L6.2144 0.7236L6.2495 0.6963L6.2793 0.673L6.3033 0.6545L6.2391 0.8267L6.1848 0.9868L6.1401 1.1354L6.1048 1.273L6.0786 1.4L6.0611 1.5171L6.0521 1.6246L6.0512 1.7232L6.0583 1.8133L6.0729 1.8954L6.0949 1.9701L6.1238 2.0378L6.1594 2.0991L6.2014 2.1545L6.2496 2.2045L6.3035 2.2496L6.363 2.2902L6.4277 2.3271L6.4973 2.3605L6.5716 2.3911L6.6502 2.4193L6.7329 2.4457L6.8193 2.4708L6.9092 2.495L7.0022 2.5189L7.0981 2.5431L7.1966 2.568L7.2973 2.594L7.1307 2.6847L6.9809 2.7706L6.8469 2.8519L6.7274 2.9291L6.6214 3.0023L6.5278 3.0721L6.4454 3.1386L6.3732 3.2022L6.31 3.2632L6.2547 3.3219L6.2062 3.3787L6.1634 3.4339L6.1251 3.4877L6.0903 3.5406L6.0578 3.5928L6.0265 3.6446L5.9953 3.6964L5.9631 3.7484L5.9288 3.8011L5.8912 3.8547L5.8505 3.9136L5.8129 3.9754L5.7788 4.0398L5.7488 4.1066L5.7235 4.1755L5.7035 4.2463L5.6893 4.3186L5.6815 4.3923L5.6807 4.4672L5.6874 4.5428L5.7023 4.619L5.7259 4.6956L5.7588 4.7723L5.8015 4.8488L5.8547 4.9248L5.9188 5.0002L5.9945 5.0746L6.0824 5.1478L6.183 5.2196L6.2968 5.2897L6.4245 5.3578L6.2445 5.3207L6.0807 5.2873L5.9324 5.2575L5.7985 5.2312L5.6781 5.2082L5.5704 5.1883L5.4743 5.1715L5.3889 5.1576L5.3132 5.1466L5.2464 5.1381L5.1875 5.1322L5.1356 5.1286L5.0897 5.1273L5.0488 5.1282L5.0121 5.131L4.9787 5.1356L4.9474 5.142L4.9176 5.1499L4.8881 5.1593L4.858 5.17L4.8265 5.1819L4.7925 5.1948L4.7552 5.2086L4.7136 5.2232L4.6668 5.2385L4.6137 5.2542L4.5536 5.2704L4.4854 5.2867L4.4054 5.3085L4.3283 5.3368L4.2539 5.3712L4.1823 5.4114L4.1135 5.4571L4.0474 5.508L3.984 5.5639L3.9233 5.6243L3.8652 5.6889L3.8098 5.7575L3.757 5.8298L3.7067 5.9054L3.6591 5.984L3.614 6.0653L3.5713 6.1489L3.5312 6.2347L3.4936 6.3222L3.4584 6.4112L3.4256 6.5013L3.3952 6.5922L3.3672 6.6836L3.3415 6.7753L3.3182 6.8668L3.2971 6.9579L3.2393 6.8545L3.1824 6.7528L3.1262 6.6527L3.0706 6.5544L3.0157 6.4579L2.9612 6.3633L2.907 6.2706L2.8532 6.1799L2.7995 6.0913L2.7459 6.0048L2.6922 5.9204L2.6385 5.8383L2.5845 5.7585L2.5303 5.681L2.4756 5.606L2.4204 5.5334L2.3647 5.4633L2.3082 5.3959L2.251 5.3311L2.1928 5.269L2.1337 5.2097L2.0735 5.1532L2.0121 5.0996L1.9494 5.049L1.8854 5.0013L1.8199 4.9568L1.7528 4.9154L1.6841 4.8771L1.6136 4.8422L1.5413 4.8105L1.467 4.7822L1.3906 4.7573L1.3121 4.736L1.2314 4.7181L1.1483 4.7039L1.0628 4.6934L0.9747 4.6866L0.8841 4.6836L0.7907 4.6844L0.6944 4.6892L0.5953 4.6979L0.4931 4.7106L0.3879 4.7275L0.5525 4.6519L0.7021 4.5787L0.8371 4.5077L0.9581 4.4388L1.0653 4.3721L1.1595 4.3074L1.2409 4.2445L1.3102 4.1835L1.3677 4.1242L1.414 4.0666L1.4495 4.0105L1.4747 3.9559L1.4901 3.9026L1.4961 3.8507L1.4933 3.7999L1.482 3.7503L1.4629 3.7017L1.4363 3.654L1.4027 3.6072L1.3626 3.5612L1.3165 3.5158L1.2649 3.4711L1.2082 3.4268L1.1469 3.3829L1.0815 3.3394L1.0124 3.2961L0.9402 3.253L0.8653 3.2099L0.7882 3.1668L0.7094 3.1236L0.6292 3.0802L0.5483 3.0365L0.4671 2.9924L0.3861 2.9479L0.3057 2.9028L0.2264 2.8571L0.1487 2.8107L0.0731 2.7634L0 2.7153L0.1807 2.6822L0.3475 2.6509L0.5005 2.6206L0.6398 2.5908L0.7654 2.5609L0.8773 2.5304L0.9758 2.4987L1.0607 2.4651L1.1324 2.4292L1.1907 2.3903L1.2358 2.3479L1.2677 2.3013L1.2867 2.2501L1.2926 2.1936L1.2856 2.1313L1.2658 2.0625L1.2332 1.9867L1.1879 1.9034L1.1301 1.8119L1.0597 1.7117L0.9769 1.6022L0.8817 1.4829L0.7742 1.353L0.6545 1.2122L0.7342 1.2602L0.8121 1.3084L0.8883 1.3565L0.9627 1.4041L1.0352 1.4507L1.1058 1.496L1.1745 1.5397L1.2411 1.5813L1.3056 1.6205L1.3679 1.6569L1.428 1.6901L1.4858 1.7197L1.5413 1.7454L1.5944 1.7668L1.645 1.7835L1.6931 1.7951L1.7386 1.8012L1.7814 1.8015L1.8215 1.7956L1.8589 1.7831L1.8935 1.7637L1.9251 1.7369L1.9538 1.7023L1.9795 1.6597L2.0022 1.6086L2.0216 1.5486L2.0379 1.4794L2.051 1.4005L2.0607 1.3117L2.0671 1.2125L2.07 1.1025L2.0695 0.9814L2.0653 0.8488L2.0576 0.7044L2.0462 0.5476L2.0311 0.3782L2.0121 0.1958L1.9893 0L2.0209 0.0056L2.0531 0.0205L2.0861 0.0439L2.1198 0.0751L2.1543 0.1134L2.1895 0.1581L2.2254 0.2084L2.2621 0.2636L2.2995 0.323L2.3377 0.3859L2.3766 0.4515L2.4164 0.5192L2.4569 0.5882L2.4981 0.6577L2.5402 0.7272L2.583 0.7958L2.6267 0.8627L2.6711 0.9275L2.7164 0.9891L2.7625 1.0471L2.8094 1.1005L2.8571 1.1488L2.9056 1.1912L2.955 1.227L3.0052 1.2554L3.0563 1.2757L3.1082 1.2872L3.161 1.2892L3.2146 1.281L3.2691 1.2618L3.3245 1.231L3.3807 1.1877L3.4379 1.1313L3.4959 1.0611L3.5548 0.9763L3.6146 0.8762L3.6754 0.7601L3.737 0.6273L3.7996 0.477L3.863 0.3085L3.9274 0.1212M5.4693 3.2141L5.4655 3.0982L5.4542 2.9844L5.4357 2.8729L5.4102 2.7641L5.378 2.6581L5.3393 2.5552L5.2944 2.4557L5.2435 2.3597L5.1868 2.2677L5.1246 2.1797L5.0572 2.0961L4.9848 2.0171L4.9076 1.943L4.8259 1.874L4.74 1.8104L4.65 1.7524L4.5562 1.7003L4.459 1.6544L4.3584 1.6148L4.2548 1.5818L4.1484 1.5557L4.0395 1.5368L3.9283 1.5252L3.815 1.5213L3.7018 1.5252L3.5906 1.5368L3.4816 1.5557L3.3753 1.5818L3.2717 1.6148L3.1711 1.6544L3.0738 1.7003L2.9801 1.7524L2.8901 1.8104L2.8041 1.874L2.7224 1.943L2.6453 2.0171L2.5728 2.0961L2.5054 2.1797L2.4433 2.2677L2.3866 2.3597L2.3357 2.4557L2.2907 2.5552L2.252 2.6581L2.2198 2.7641L2.1943 2.8729L2.1758 2.9844L2.1646 3.0982L2.1607 3.2141L2.1646 3.33L2.1758 3.4438L2.1943 3.5552L2.2198 3.6641L2.252 3.7701L2.2907 3.873L2.3357 3.9725L2.3866 4.0685L2.4433 4.1605L2.5054 4.2485L2.5728 4.3321L2.6453 4.4111L2.7224 4.4852L2.8041 4.5541L2.8901 4.6178L2.9801 4.6757L3.0738 4.7279L3.1711 4.7738L3.2717 4.8134L3.3753 4.8464L3.4816 4.8725L3.5906 4.8914L3.7018 4.903L3.815 4.9069L3.9283 4.903L4.0395 4.8914L4.1484 4.8725L4.2548 4.8464L4.3584 4.8134L4.459 4.7738L4.5562 4.7279L4.65 4.6757L4.74 4.6178L4.8259 4.5541L4.9076 4.4852L4.9848 4.4111L5.0572 4.3321L5.1246 4.2485L5.1868 4.1605L5.2435 4.0685L5.2944 3.9725L5.3393 3.873L5.378 3.7701L5.4102 3.6641L5.4357 3.5552L5.4542 3.4438L5.4655 3.33L5.4693 3.2141"/><path id="shape03" transform="matrix(0.999999981684498 0 0 0.999999981684498 124.991350476654 55.8010475280534)" fill="#071a03" fill-rule="evenodd" stroke="#071a03" stroke-width="1.1352" stroke-linecap="square" stroke-linejoin="miter" stroke-miterlimit="1.91999995708466" d="M3.9274 0.1212L3.9869 0.2845L4.0499 0.4324L4.1161 0.5655L4.1854 0.6843L4.2575 0.7896L4.332 0.8818L4.4086 0.9617L4.4872 1.0298L4.5674 1.0868L4.6489 1.1332L4.7315 1.1696L4.8148 1.1968L4.8987 1.2152L4.9827 1.2256L5.0667 1.2284L5.1504 1.2244L5.2334 1.2141L5.3156 1.1981L5.3965 1.1771L5.476 1.1517L5.5538 1.1225L5.6295 1.09L5.703 1.055L5.7738 1.0179L5.8418 0.9795L5.9067 0.9404L5.9682 0.9011L6.0259 0.8622L6.0797 0.8244L6.1293 0.7883L6.1743 0.7545L6.2144 0.7236L6.2495 0.6963L6.2793 0.673L6.3033 0.6545L6.2391 0.8267L6.1848 0.9868L6.1401 1.1354L6.1048 1.273L6.0786 1.4L6.0611 1.5171L6.0521 1.6246L6.0512 1.7232L6.0583 1.8133L6.0729 1.8954L6.0949 1.9701L6.1238 2.0378L6.1594 2.0991L6.2014 2.1545L6.2496 2.2045L6.3035 2.2496L6.363 2.2902L6.4277 2.3271L6.4973 2.3605L6.5716 2.3911L6.6502 2.4193L6.7329 2.4457L6.8193 2.4708L6.9092 2.495L7.0022 2.5189L7.0981 2.5431L7.1966 2.568L7.2973 2.594L7.1307 2.6847L6.9809 2.7706L6.8469 2.8519L6.7274 2.9291L6.6214 3.0023L6.5278 3.0721L6.4454 3.1386L6.3732 3.2022L6.31 3.2632L6.2547 3.3219L6.2062 3.3787L6.1634 3.4339L6.1251 3.4877L6.0903 3.5406L6.0578 3.5928L6.0265 3.6446L5.9953 3.6964L5.9631 3.7484L5.9288 3.8011L5.8912 3.8547L5.8505 3.9136L5.8129 3.9754L5.7788 4.0398L5.7488 4.1066L5.7235 4.1755L5.7035 4.2463L5.6893 4.3186L5.6815 4.3923L5.6807 4.4672L5.6874 4.5428L5.7023 4.619L5.7259 4.6956L5.7588 4.7723L5.8015 4.8488L5.8547 4.9248L5.9188 5.0002L5.9945 5.0746L6.0824 5.1478L6.183 5.2196L6.2968 5.2897L6.4245 5.3578L6.2445 5.3207L6.0807 5.2873L5.9324 5.2575L5.7985 5.2312L5.6781 5.2082L5.5704 5.1883L5.4743 5.1715L5.3889 5.1576L5.3132 5.1466L5.2464 5.1381L5.1875 5.1322L5.1356 5.1286L5.0897 5.1273L5.0488 5.1282L5.0121 5.131L4.9787 5.1356L4.9474 5.142L4.9176 5.1499L4.8881 5.1593L4.858 5.17L4.8265 5.1819L4.7925 5.1948L4.7552 5.2086L4.7136 5.2232L4.6668 5.2385L4.6137 5.2542L4.5536 5.2704L4.4854 5.2867L4.4054 5.3085L4.3283 5.3368L4.2539 5.3712L4.1823 5.4114L4.1135 5.4571L4.0474 5.508L3.984 5.5639L3.9233 5.6243L3.8652 5.6889L3.8098 5.7575L3.757 5.8298L3.7067 5.9054L3.6591 5.984L3.614 6.0653L3.5713 6.1489L3.5312 6.2347L3.4936 6.3222L3.4584 6.4112L3.4256 6.5013L3.3952 6.5922L3.3672 6.6836L3.3415 6.7753L3.3182 6.8668L3.2971 6.9579L3.2393 6.8545L3.1824 6.7528L3.1262 6.6527L3.0706 6.5544L3.0157 6.4579L2.9612 6.3633L2.907 6.2706L2.8532 6.1799L2.7995 6.0913L2.7459 6.0048L2.6922 5.9204L2.6385 5.8383L2.5845 5.7585L2.5303 5.681L2.4756 5.606L2.4204 5.5334L2.3647 5.4633L2.3082 5.3959L2.251 5.3311L2.1928 5.269L2.1337 5.2097L2.0735 5.1532L2.0121 5.0996L1.9494 5.049L1.8854 5.0013L1.8199 4.9568L1.7528 4.9154L1.6841 4.8771L1.6136 4.8422L1.5413 4.8105L1.467 4.7822L1.3906 4.7573L1.3121 4.736L1.2314 4.7181L1.1483 4.7039L1.0628 4.6934L0.9747 4.6866L0.8841 4.6836L0.7907 4.6844L0.6944 4.6892L0.5953 4.6979L0.4931 4.7106L0.3879 4.7275L0.5525 4.6519L0.7021 4.5787L0.8371 4.5077L0.9581 4.4388L1.0653 4.3721L1.1595 4.3074L1.2409 4.2445L1.3102 4.1835L1.3677 4.1242L1.414 4.0666L1.4495 4.0105L1.4747 3.9559L1.4901 3.9026L1.4961 3.8507L1.4933 3.7999L1.482 3.7503L1.4629 3.7017L1.4363 3.654L1.4027 3.6072L1.3626 3.5612L1.3165 3.5158L1.2649 3.4711L1.2082 3.4268L1.1469 3.3829L1.0815 3.3394L1.0124 3.2961L0.9402 3.253L0.8653 3.2099L0.7882 3.1668L0.7094 3.1236L0.6292 3.0802L0.5483 3.0365L0.4671 2.9924L0.3861 2.9479L0.3057 2.9028L0.2264 2.8571L0.1487 2.8107L0.0731 2.7634L0 2.7153L0.1807 2.6822L0.3475 2.6509L0.5005 2.6206L0.6398 2.5908L0.7654 2.5609L0.8773 2.5304L0.9758 2.4987L1.0607 2.4651L1.1324 2.4292L1.1907 2.3903L1.2358 2.3479L1.2677 2.3013L1.2867 2.2501L1.2926 2.1936L1.2856 2.1313L1.2658 2.0625L1.2332 1.9867L1.1879 1.9034L1.1301 1.8119L1.0597 1.7117L0.9769 1.6022L0.8817 1.4829L0.7742 1.353L0.6545 1.2122L0.7342 1.2602L0.8121 1.3084L0.8883 1.3565L0.9627 1.4041L1.0352 1.4507L1.1058 1.496L1.1745 1.5397L1.2411 1.5813L1.3056 1.6205L1.3679 1.6569L1.428 1.6901L1.4858 1.7197L1.5413 1.7454L1.5944 1.7668L1.645 1.7835L1.6931 1.7951L1.7386 1.8012L1.7814 1.8015L1.8215 1.7956L1.8589 1.7831L1.8935 1.7637L1.9251 1.7369L1.9538 1.7023L1.9795 1.6597L2.0022 1.6086L2.0216 1.5486L2.0379 1.4794L2.051 1.4005L2.0607 1.3117L2.0671 1.2125L2.07 1.1025L2.0695 0.9814L2.0653 0.8488L2.0576 0.7044L2.0462 0.5476L2.0311 0.3782L2.0121 0.1958L1.9893 0L2.0209 0.0056L2.0531 0.0205L2.0861 0.0439L2.1198 0.0751L2.1543 0.1134L2.1895 0.1581L2.2254 0.2084L2.2621 0.2636L2.2995 0.323L2.3377 0.3859L2.3766 0.4515L2.4164 0.5192L2.4569 0.5882L2.4981 0.6577L2.5402 0.7272L2.583 0.7958L2.6267 0.8627L2.6711 0.9275L2.7164 0.9891L2.7625 1.0471L2.8094 1.1005L2.8571 1.1488L2.9056 1.1912L2.955 1.227L3.0052 1.2554L3.0563 1.2757L3.1082 1.2872L3.161 1.2892L3.2146 1.281L3.2691 1.2618L3.3245 1.231L3.3807 1.1877L3.4379 1.1313L3.4959 1.0611L3.5548 0.9763L3.6146 0.8762L3.6754 0.7601L3.737 0.6273L3.7996 0.477L3.863 0.3085L3.9274 0.1212M5.4693 3.2141L5.4655 3.0982L5.4542 2.9844L5.4357 2.8729L5.4102 2.7641L5.378 2.6581L5.3393 2.5552L5.2944 2.4557L5.2435 2.3597L5.1868 2.2677L5.1246 2.1797L5.0572 2.0961L4.9848 2.0171L4.9076 1.943L4.8259 1.874L4.74 1.8104L4.65 1.7524L4.5562 1.7003L4.459 1.6544L4.3584 1.6148L4.2548 1.5818L4.1484 1.5557L4.0395 1.5368L3.9283 1.5252L3.815 1.5213L3.7018 1.5252L3.5906 1.5368L3.4816 1.5557L3.3753 1.5818L3.2717 1.6148L3.1711 1.6544L3.0738 1.7003L2.9801 1.7524L2.8901 1.8104L2.8041 1.874L2.7224 1.943L2.6453 2.0171L2.5728 2.0961L2.5054 2.1797L2.4433 2.2677L2.3866 2.3597L2.3357 2.4557L2.2907 2.5552L2.252 2.6581L2.2198 2.7641L2.1943 2.8729L2.1758 2.9844L2.1646 3.0982L2.1607 3.2141L2.1646 3.33L2.1758 3.4438L2.1943 3.5552L2.2198 3.6641L2.252 3.7701L2.2907 3.873L2.3357 3.9725L2.3866 4.0685L2.4433 4.1605L2.5054 4.2485L2.5728 4.3321L2.6453 4.4111L2.7224 4.4852L2.8041 4.5541L2.8901 4.6178L2.9801 4.6757L3.0738 4.7279L3.1711 4.7738L3.2717 4.8134L3.3753 4.8464L3.4816 4.8725L3.5906 4.8914L3.7018 4.903L3.815 4.9069L3.9283 4.903L4.0395 4.8914L4.1484 4.8725L4.2548 4.8464L4.3584 4.8134L4.459 4.7738L4.5562 4.7279L4.65 4.6757L4.74 4.6178L4.8259 4.5541L4.9076 4.4852L4.9848 4.4111L5.0572 4.3321L5.1246 4.2485L5.1868 4.1605L5.2435 4.0685L5.2944 3.9725L5.3393 3.873L5.378 3.7701L5.4102 3.6641L5.4357 3.5552L5.4542 3.4438L5.4655 3.33L5.4693 3.2141"/><path id="shape01" transform="matrix(1.00000001458628 0 0 1.00000001458628 145.355129956414 36.9154700112053)" fill="#071a03" fill-rule="evenodd" stroke="#071a03" stroke-width="1.1352" stroke-linecap="square" stroke-linejoin="miter" stroke-miterlimit="1.91999995708466" d="M3.9274 0.1212L3.9869 0.2845L4.0499 0.4324L4.1161 0.5655L4.1854 0.6843L4.2575 0.7896L4.332 0.8818L4.4086 0.9617L4.4872 1.0298L4.5674 1.0868L4.6489 1.1332L4.7315 1.1696L4.8148 1.1968L4.8987 1.2152L4.9827 1.2256L5.0667 1.2284L5.1504 1.2244L5.2334 1.2141L5.3156 1.1981L5.3965 1.1771L5.476 1.1517L5.5538 1.1225L5.6295 1.09L5.703 1.055L5.7738 1.0179L5.8418 0.9795L5.9067 0.9404L5.9682 0.9011L6.0259 0.8622L6.0797 0.8244L6.1293 0.7883L6.1743 0.7545L6.2144 0.7236L6.2495 0.6963L6.2793 0.673L6.3033 0.6545L6.2391 0.8267L6.1848 0.9868L6.1401 1.1354L6.1048 1.273L6.0786 1.4L6.0611 1.5171L6.0521 1.6246L6.0512 1.7232L6.0583 1.8133L6.0729 1.8954L6.0949 1.9701L6.1238 2.0378L6.1594 2.0991L6.2014 2.1545L6.2496 2.2045L6.3035 2.2496L6.363 2.2902L6.4277 2.3271L6.4973 2.3605L6.5716 2.3911L6.6502 2.4193L6.7329 2.4457L6.8193 2.4708L6.9092 2.495L7.0022 2.5189L7.0981 2.5431L7.1966 2.568L7.2973 2.594L7.1307 2.6847L6.9809 2.7706L6.8469 2.8519L6.7274 2.9291L6.6214 3.0023L6.5278 3.0721L6.4454 3.1386L6.3732 3.2022L6.31 3.2632L6.2547 3.3219L6.2062 3.3787L6.1634 3.4339L6.1251 3.4877L6.0903 3.5406L6.0578 3.5928L6.0265 3.6446L5.9953 3.6964L5.9631 3.7484L5.9288 3.8011L5.8912 3.8547L5.8505 3.9136L5.8129 3.9754L5.7788 4.0398L5.7488 4.1066L5.7235 4.1755L5.7035 4.2463L5.6893 4.3186L5.6815 4.3923L5.6807 4.4672L5.6874 4.5428L5.7023 4.619L5.7259 4.6956L5.7588 4.7723L5.8015 4.8488L5.8547 4.9248L5.9188 5.0002L5.9945 5.0746L6.0824 5.1478L6.183 5.2196L6.2968 5.2897L6.4245 5.3578L6.2445 5.3207L6.0807 5.2873L5.9324 5.2575L5.7985 5.2312L5.6781 5.2082L5.5704 5.1883L5.4743 5.1715L5.3889 5.1576L5.3132 5.1466L5.2464 5.1381L5.1875 5.1322L5.1356 5.1286L5.0897 5.1273L5.0488 5.1282L5.0121 5.131L4.9787 5.1356L4.9474 5.142L4.9176 5.1499L4.8881 5.1593L4.858 5.17L4.8265 5.1819L4.7925 5.1948L4.7552 5.2086L4.7136 5.2232L4.6668 5.2385L4.6137 5.2542L4.5536 5.2704L4.4854 5.2867L4.4054 5.3085L4.3283 5.3368L4.2539 5.3712L4.1823 5.4114L4.1135 5.4571L4.0474 5.508L3.984 5.5639L3.9233 5.6243L3.8652 5.6889L3.8098 5.7575L3.757 5.8298L3.7067 5.9054L3.6591 5.984L3.614 6.0653L3.5713 6.1489L3.5312 6.2347L3.4936 6.3222L3.4584 6.4112L3.4256 6.5013L3.3952 6.5922L3.3672 6.6836L3.3415 6.7753L3.3182 6.8668L3.2971 6.9579L3.2393 6.8545L3.1824 6.7528L3.1262 6.6527L3.0706 6.5544L3.0157 6.4579L2.9612 6.3633L2.907 6.2706L2.8532 6.1799L2.7995 6.0913L2.7459 6.0048L2.6922 5.9204L2.6385 5.8383L2.5845 5.7585L2.5303 5.681L2.4756 5.606L2.4204 5.5334L2.3647 5.4633L2.3082 5.3959L2.251 5.3311L2.1928 5.269L2.1337 5.2097L2.0735 5.1532L2.0121 5.0996L1.9494 5.049L1.8854 5.0013L1.8199 4.9568L1.7528 4.9154L1.6841 4.8771L1.6136 4.8422L1.5413 4.8105L1.467 4.7822L1.3906 4.7573L1.3121 4.736L1.2314 4.7181L1.1483 4.7039L1.0628 4.6934L0.9747 4.6866L0.8841 4.6836L0.7907 4.6844L0.6944 4.6892L0.5953 4.6979L0.4931 4.7106L0.3879 4.7275L0.5525 4.6519L0.7021 4.5787L0.8371 4.5077L0.9581 4.4388L1.0653 4.3721L1.1595 4.3074L1.2409 4.2445L1.3102 4.1835L1.3677 4.1242L1.414 4.0666L1.4495 4.0105L1.4747 3.9559L1.4901 3.9026L1.4961 3.8507L1.4933 3.7999L1.482 3.7503L1.4629 3.7017L1.4363 3.654L1.4027 3.6072L1.3626 3.5612L1.3165 3.5158L1.2649 3.4711L1.2082 3.4268L1.1469 3.3829L1.0815 3.3394L1.0124 3.2961L0.9402 3.253L0.8653 3.2099L0.7882 3.1668L0.7094 3.1236L0.6292 3.0802L0.5483 3.0365L0.4671 2.9924L0.3861 2.9479L0.3057 2.9028L0.2264 2.8571L0.1487 2.8107L0.0731 2.7634L0 2.7153L0.1807 2.6822L0.3475 2.6509L0.5005 2.6206L0.6398 2.5908L0.7654 2.5609L0.8773 2.5304L0.9758 2.4987L1.0607 2.4651L1.1324 2.4292L1.1907 2.3903L1.2358 2.3479L1.2677 2.3013L1.2867 2.2501L1.2926 2.1936L1.2856 2.1313L1.2658 2.0625L1.2332 1.9867L1.1879 1.9034L1.1301 1.8119L1.0597 1.7117L0.9769 1.6022L0.8817 1.4829L0.7742 1.353L0.6545 1.2122L0.7342 1.2602L0.8121 1.3084L0.8883 1.3565L0.9627 1.4041L1.0352 1.4507L1.1058 1.496L1.1745 1.5397L1.2411 1.5813L1.3056 1.6205L1.3679 1.6569L1.428 1.6901L1.4858 1.7197L1.5413 1.7454L1.5944 1.7668L1.645 1.7835L1.6931 1.7951L1.7386 1.8012L1.7814 1.8015L1.8215 1.7956L1.8589 1.7831L1.8935 1.7637L1.9251 1.7369L1.9538 1.7023L1.9795 1.6597L2.0022 1.6086L2.0216 1.5486L2.0379 1.4794L2.051 1.4005L2.0607 1.3117L2.0671 1.2125L2.07 1.1025L2.0695 0.9814L2.0653 0.8488L2.0576 0.7044L2.0462 0.5476L2.0311 0.3782L2.0121 0.1958L1.9893 0L2.0209 0.0056L2.0531 0.0205L2.0861 0.0439L2.1198 0.0751L2.1543 0.1134L2.1895 0.1581L2.2254 0.2084L2.2621 0.2636L2.2995 0.323L2.3377 0.3859L2.3766 0.4515L2.4164 0.5192L2.4569 0.5882L2.4981 0.6577L2.5402 0.7272L2.583 0.7958L2.6267 0.8627L2.6711 0.9275L2.7164 0.9891L2.7625 1.0471L2.8094 1.1005L2.8571 1.1488L2.9056 1.1912L2.955 1.227L3.0052 1.2554L3.0563 1.2757L3.1082 1.2872L3.161 1.2892L3.2146 1.281L3.2691 1.2618L3.3245 1.231L3.3807 1.1877L3.4379 1.1313L3.4959 1.0611L3.5548 0.9763L3.6146 0.8762L3.6754 0.7601L3.737 0.6273L3.7996 0.477L3.863 0.3085L3.9274 0.1212M5.4693 3.2141L5.4655 3.0982L5.4542 2.9844L5.4357 2.8729L5.4102 2.7641L5.378 2.6581L5.3393 2.5552L5.2944 2.4557L5.2435 2.3597L5.1868 2.2677L5.1246 2.1797L5.0572 2.0961L4.9848 2.0171L4.9076 1.943L4.8259 1.874L4.74 1.8104L4.65 1.7524L4.5562 1.7003L4.459 1.6544L4.3584 1.6148L4.2548 1.5818L4.1484 1.5557L4.0395 1.5368L3.9283 1.5252L3.815 1.5213L3.7018 1.5252L3.5906 1.5368L3.4816 1.5557L3.3753 1.5818L3.2717 1.6148L3.1711 1.6544L3.0738 1.7003L2.9801 1.7524L2.8901 1.8104L2.8041 1.874L2.7224 1.943L2.6453 2.0171L2.5728 2.0961L2.5054 2.1797L2.4433 2.2677L2.3866 2.3597L2.3357 2.4557L2.2907 2.5552L2.252 2.6581L2.2198 2.7641L2.1943 2.8729L2.1758 2.9844L2.1646 3.0982L2.1607 3.2141L2.1646 3.33L2.1758 3.4438L2.1943 3.5552L2.2198 3.6641L2.252 3.7701L2.2907 3.873L2.3357 3.9725L2.3866 4.0685L2.4433 4.1605L2.5054 4.2485L2.5728 4.3321L2.6453 4.4111L2.7224 4.4852L2.8041 4.5541L2.8901 4.6178L2.9801 4.6757L3.0738 4.7279L3.1711 4.7738L3.2717 4.8134L3.3753 4.8464L3.4816 4.8725L3.5906 4.8914L3.7018 4.903L3.815 4.9069L3.9283 4.903L4.0395 4.8914L4.1484 4.8725L4.2548 4.8464L4.3584 4.8134L4.459 4.7738L4.5562 4.7279L4.65 4.6757L4.74 4.6178L4.8259 4.5541L4.9076 4.4852L4.9848 4.4111L5.0572 4.3321L5.1246 4.2485L5.1868 4.1605L5.2435 4.0685L5.2944 3.9725L5.3393 3.873L5.378 3.7701L5.4102 3.6641L5.4357 3.5552L5.4542 3.4438L5.4655 3.33L5.4693 3.2141"/><path id="shape02" transform="matrix(1.00000001458628 0 0 1.00000001458628 136.108709315153 47.0651580805354)" fill="#071a03" fill-rule="evenodd" stroke="#071a03" stroke-width="1.1352" stroke-linecap="square" stroke-linejoin="miter" stroke-miterlimit="1.91999995708466" d="M3.9274 0.1212L3.9869 0.2845L4.0499 0.4324L4.1161 0.5655L4.1854 0.6843L4.2575 0.7896L4.332 0.8818L4.4086 0.9617L4.4872 1.0298L4.5674 1.0868L4.6489 1.1332L4.7315 1.1696L4.8148 1.1968L4.8987 1.2152L4.9827 1.2256L5.0667 1.2284L5.1504 1.2244L5.2334 1.2141L5.3156 1.1981L5.3965 1.1771L5.476 1.1517L5.5538 1.1225L5.6295 1.09L5.703 1.055L5.7738 1.0179L5.8418 0.9795L5.9067 0.9404L5.9682 0.9011L6.0259 0.8622L6.0797 0.8244L6.1293 0.7883L6.1743 0.7545L6.2144 0.7236L6.2495 0.6963L6.2793 0.673L6.3033 0.6545L6.2391 0.8267L6.1848 0.9868L6.1401 1.1354L6.1048 1.273L6.0786 1.4L6.0611 1.5171L6.0521 1.6246L6.0512 1.7232L6.0583 1.8133L6.0729 1.8954L6.0949 1.9701L6.1238 2.0378L6.1594 2.0991L6.2014 2.1545L6.2496 2.2045L6.3035 2.2496L6.363 2.2902L6.4277 2.3271L6.4973 2.3605L6.5716 2.3911L6.6502 2.4193L6.7329 2.4457L6.8193 2.4708L6.9092 2.495L7.0022 2.5189L7.0981 2.5431L7.1966 2.568L7.2973 2.594L7.1307 2.6847L6.9809 2.7706L6.8469 2.8519L6.7274 2.9291L6.6214 3.0023L6.5278 3.0721L6.4454 3.1386L6.3732 3.2022L6.31 3.2632L6.2547 3.3219L6.2062 3.3787L6.1634 3.4339L6.1251 3.4877L6.0903 3.5406L6.0578 3.5928L6.0265 3.6446L5.9953 3.6964L5.9631 3.7484L5.9288 3.8011L5.8912 3.8547L5.8505 3.9136L5.8129 3.9754L5.7788 4.0398L5.7488 4.1066L5.7235 4.1755L5.7035 4.2463L5.6893 4.3186L5.6815 4.3923L5.6807 4.4672L5.6874 4.5428L5.7023 4.619L5.7259 4.6956L5.7588 4.7723L5.8015 4.8488L5.8547 4.9248L5.9188 5.0002L5.9945 5.0746L6.0824 5.1478L6.183 5.2196L6.2968 5.2897L6.4245 5.3578L6.2445 5.3207L6.0807 5.2873L5.9324 5.2575L5.7985 5.2312L5.6781 5.2082L5.5704 5.1883L5.4743 5.1715L5.3889 5.1576L5.3132 5.1466L5.2464 5.1381L5.1875 5.1322L5.1356 5.1286L5.0897 5.1273L5.0488 5.1282L5.0121 5.131L4.9787 5.1356L4.9474 5.142L4.9176 5.1499L4.8881 5.1593L4.858 5.17L4.8265 5.1819L4.7925 5.1948L4.7552 5.2086L4.7136 5.2232L4.6668 5.2385L4.6137 5.2542L4.5536 5.2704L4.4854 5.2867L4.4054 5.3085L4.3283 5.3368L4.2539 5.3712L4.1823 5.4114L4.1135 5.4571L4.0474 5.508L3.984 5.5639L3.9233 5.6243L3.8652 5.6889L3.8098 5.7575L3.757 5.8298L3.7067 5.9054L3.6591 5.984L3.614 6.0653L3.5713 6.1489L3.5312 6.2347L3.4936 6.3222L3.4584 6.4112L3.4256 6.5013L3.3952 6.5922L3.3672 6.6836L3.3415 6.7753L3.3182 6.8668L3.2971 6.9579L3.2393 6.8545L3.1824 6.7528L3.1262 6.6527L3.0706 6.5544L3.0157 6.4579L2.9612 6.3633L2.907 6.2706L2.8532 6.1799L2.7995 6.0913L2.7459 6.0048L2.6922 5.9204L2.6385 5.8383L2.5845 5.7585L2.5303 5.681L2.4756 5.606L2.4204 5.5334L2.3647 5.4633L2.3082 5.3959L2.251 5.3311L2.1928 5.269L2.1337 5.2097L2.0735 5.1532L2.0121 5.0996L1.9494 5.049L1.8854 5.0013L1.8199 4.9568L1.7528 4.9154L1.6841 4.8771L1.6136 4.8422L1.5413 4.8105L1.467 4.7822L1.3906 4.7573L1.3121 4.736L1.2314 4.7181L1.1483 4.7039L1.0628 4.6934L0.9747 4.6866L0.8841 4.6836L0.7907 4.6844L0.6944 4.6892L0.5953 4.6979L0.4931 4.7106L0.3879 4.7275L0.5525 4.6519L0.7021 4.5787L0.8371 4.5077L0.9581 4.4388L1.0653 4.3721L1.1595 4.3074L1.2409 4.2445L1.3102 4.1835L1.3677 4.1242L1.414 4.0666L1.4495 4.0105L1.4747 3.9559L1.4901 3.9026L1.4961 3.8507L1.4933 3.7999L1.482 3.7503L1.4629 3.7017L1.4363 3.654L1.4027 3.6072L1.3626 3.5612L1.3165 3.5158L1.2649 3.4711L1.2082 3.4268L1.1469 3.3829L1.0815 3.3394L1.0124 3.2961L0.9402 3.253L0.8653 3.2099L0.7882 3.1668L0.7094 3.1236L0.6292 3.0802L0.5483 3.0365L0.4671 2.9924L0.3861 2.9479L0.3057 2.9028L0.2264 2.8571L0.1487 2.8107L0.0731 2.7634L0 2.7153L0.1807 2.6822L0.3475 2.6509L0.5005 2.6206L0.6398 2.5908L0.7654 2.5609L0.8773 2.5304L0.9758 2.4987L1.0607 2.4651L1.1324 2.4292L1.1907 2.3903L1.2358 2.3479L1.2677 2.3013L1.2867 2.2501L1.2926 2.1936L1.2856 2.1313L1.2658 2.0625L1.2332 1.9867L1.1879 1.9034L1.1301 1.8119L1.0597 1.7117L0.9769 1.6022L0.8817 1.4829L0.7742 1.353L0.6545 1.2122L0.7342 1.2602L0.8121 1.3084L0.8883 1.3565L0.9627 1.4041L1.0352 1.4507L1.1058 1.496L1.1745 1.5397L1.2411 1.5813L1.3056 1.6205L1.3679 1.6569L1.428 1.6901L1.4858 1.7197L1.5413 1.7454L1.5944 1.7668L1.645 1.7835L1.6931 1.7951L1.7386 1.8012L1.7814 1.8015L1.8215 1.7956L1.8589 1.7831L1.8935 1.7637L1.9251 1.7369L1.9538 1.7023L1.9795 1.6597L2.0022 1.6086L2.0216 1.5486L2.0379 1.4794L2.051 1.4005L2.0607 1.3117L2.0671 1.2125L2.07 1.1025L2.0695 0.9814L2.0653 0.8488L2.0576 0.7044L2.0462 0.5476L2.0311 0.3782L2.0121 0.1958L1.9893 0L2.0209 0.0056L2.0531 0.0205L2.0861 0.0439L2.1198 0.0751L2.1543 0.1134L2.1895 0.1581L2.2254 0.2084L2.2621 0.2636L2.2995 0.323L2.3377 0.3859L2.3766 0.4515L2.4164 0.5192L2.4569 0.5882L2.4981 0.6577L2.5402 0.7272L2.583 0.7958L2.6267 0.8627L2.6711 0.9275L2.7164 0.9891L2.7625 1.0471L2.8094 1.1005L2.8571 1.1488L2.9056 1.1912L2.955 1.227L3.0052 1.2554L3.0563 1.2757L3.1082 1.2872L3.161 1.2892L3.2146 1.281L3.2691 1.2618L3.3245 1.231L3.3807 1.1877L3.4379 1.1313L3.4959 1.0611L3.5548 0.9763L3.6146 0.8762L3.6754 0.7601L3.737 0.6273L3.7996 0.477L3.863 0.3085L3.9274 0.1212M5.4693 3.2141L5.4655 3.0982L5.4542 2.9844L5.4357 2.8729L5.4102 2.7641L5.378 2.6581L5.3393 2.5552L5.2944 2.4557L5.2435 2.3597L5.1868 2.2677L5.1246 2.1797L5.0572 2.0961L4.9848 2.0171L4.9076 1.943L4.8259 1.874L4.74 1.8104L4.65 1.7524L4.5562 1.7003L4.459 1.6544L4.3584 1.6148L4.2548 1.5818L4.1484 1.5557L4.0395 1.5368L3.9283 1.5252L3.815 1.5213L3.7018 1.5252L3.5906 1.5368L3.4816 1.5557L3.3753 1.5818L3.2717 1.6148L3.1711 1.6544L3.0738 1.7003L2.9801 1.7524L2.8901 1.8104L2.8041 1.874L2.7224 1.943L2.6453 2.0171L2.5728 2.0961L2.5054 2.1797L2.4433 2.2677L2.3866 2.3597L2.3357 2.4557L2.2907 2.5552L2.252 2.6581L2.2198 2.7641L2.1943 2.8729L2.1758 2.9844L2.1646 3.0982L2.1607 3.2141L2.1646 3.33L2.1758 3.4438L2.1943 3.5552L2.2198 3.6641L2.252 3.7701L2.2907 3.873L2.3357 3.9725L2.3866 4.0685L2.4433 4.1605L2.5054 4.2485L2.5728 4.3321L2.6453 4.4111L2.7224 4.4852L2.8041 4.5541L2.8901 4.6178L2.9801 4.6757L3.0738 4.7279L3.1711 4.7738L3.2717 4.8134L3.3753 4.8464L3.4816 4.8725L3.5906 4.8914L3.7018 4.903L3.815 4.9069L3.9283 4.903L4.0395 4.8914L4.1484 4.8725L4.2548 4.8464L4.3584 4.8134L4.459 4.7738L4.5562 4.7279L4.65 4.6757L4.74 4.6178L4.8259 4.5541L4.9076 4.4852L4.9848 4.4111L5.0572 4.3321L5.1246 4.2485L5.1868 4.1605L5.2435 4.0685L5.2944 3.9725L5.3393 3.873L5.378 3.7701L5.4102 3.6641L5.4357 3.5552L5.4542 3.4438L5.4655 3.33L5.4693 3.2141"/><path id="shape03" transform="matrix(-0.217344417761507 -0.976094991914455 0.976094991914455 -0.217344417761507 152.215710455612 63.5975568187548)" fill="#071a03" fill-rule="evenodd" stroke="#071a03" stroke-width="1.1352" stroke-linecap="square" stroke-linejoin="miter" stroke-miterlimit="1.91999995708466" d="M3.9274 0.1212L3.9869 0.2845L4.0499 0.4324L4.1161 0.5655L4.1854 0.6843L4.2575 0.7896L4.332 0.8818L4.4086 0.9617L4.4872 1.0298L4.5674 1.0868L4.6489 1.1332L4.7315 1.1696L4.8148 1.1968L4.8987 1.2152L4.9827 1.2256L5.0667 1.2284L5.1504 1.2244L5.2334 1.2141L5.3156 1.1981L5.3965 1.1771L5.476 1.1517L5.5538 1.1225L5.6295 1.09L5.703 1.055L5.7738 1.0179L5.8418 0.9795L5.9067 0.9404L5.9682 0.9011L6.0259 0.8622L6.0797 0.8244L6.1293 0.7883L6.1743 0.7545L6.2144 0.7236L6.2495 0.6963L6.2793 0.673L6.3033 0.6545L6.2391 0.8267L6.1848 0.9868L6.1401 1.1354L6.1048 1.273L6.0786 1.4L6.0611 1.5171L6.0521 1.6246L6.0512 1.7232L6.0583 1.8133L6.0729 1.8954L6.0949 1.9701L6.1238 2.0378L6.1594 2.0991L6.2014 2.1545L6.2496 2.2045L6.3035 2.2496L6.363 2.2902L6.4277 2.3271L6.4973 2.3605L6.5716 2.3911L6.6502 2.4193L6.7329 2.4457L6.8193 2.4708L6.9092 2.495L7.0022 2.5189L7.0981 2.5431L7.1966 2.568L7.2973 2.594L7.1307 2.6847L6.9809 2.7706L6.8469 2.8519L6.7274 2.9291L6.6214 3.0023L6.5278 3.0721L6.4454 3.1386L6.3732 3.2022L6.31 3.2632L6.2547 3.3219L6.2062 3.3787L6.1634 3.4339L6.1251 3.4877L6.0903 3.5406L6.0578 3.5928L6.0265 3.6446L5.9953 3.6964L5.9631 3.7484L5.9288 3.8011L5.8912 3.8547L5.8505 3.9136L5.8129 3.9754L5.7788 4.0398L5.7488 4.1066L5.7235 4.1755L5.7035 4.2463L5.6893 4.3186L5.6815 4.3923L5.6807 4.4672L5.6874 4.5428L5.7023 4.619L5.7259 4.6956L5.7588 4.7723L5.8015 4.8488L5.8547 4.9248L5.9188 5.0002L5.9945 5.0746L6.0824 5.1478L6.183 5.2196L6.2968 5.2897L6.4245 5.3578L6.2445 5.3207L6.0807 5.2873L5.9324 5.2575L5.7985 5.2312L5.6781 5.2082L5.5704 5.1883L5.4743 5.1715L5.3889 5.1576L5.3132 5.1466L5.2464 5.1381L5.1875 5.1322L5.1356 5.1286L5.0897 5.1273L5.0488 5.1282L5.0121 5.131L4.9787 5.1356L4.9474 5.142L4.9176 5.1499L4.8881 5.1593L4.858 5.17L4.8265 5.1819L4.7925 5.1948L4.7552 5.2086L4.7136 5.2232L4.6668 5.2385L4.6137 5.2542L4.5536 5.2704L4.4854 5.2867L4.4054 5.3085L4.3283 5.3368L4.2539 5.3712L4.1823 5.4114L4.1135 5.4571L4.0474 5.508L3.984 5.5639L3.9233 5.6243L3.8652 5.6889L3.8098 5.7575L3.757 5.8298L3.7067 5.9054L3.6591 5.984L3.614 6.0653L3.5713 6.1489L3.5312 6.2347L3.4936 6.3222L3.4584 6.4112L3.4256 6.5013L3.3952 6.5922L3.3672 6.6836L3.3415 6.7753L3.3182 6.8668L3.2971 6.9579L3.2393 6.8545L3.1824 6.7528L3.1262 6.6527L3.0706 6.5544L3.0157 6.4579L2.9612 6.3633L2.907 6.2706L2.8532 6.1799L2.7995 6.0913L2.7459 6.0048L2.6922 5.9204L2.6385 5.8383L2.5845 5.7585L2.5303 5.681L2.4756 5.606L2.4204 5.5334L2.3647 5.4633L2.3082 5.3959L2.251 5.3311L2.1928 5.269L2.1337 5.2097L2.0735 5.1532L2.0121 5.0996L1.9494 5.049L1.8854 5.0013L1.8199 4.9568L1.7528 4.9154L1.6841 4.8771L1.6136 4.8422L1.5413 4.8105L1.467 4.7822L1.3906 4.7573L1.3121 4.736L1.2314 4.7181L1.1483 4.7039L1.0628 4.6934L0.9747 4.6866L0.8841 4.6836L0.7907 4.6844L0.6944 4.6892L0.5953 4.6979L0.4931 4.7106L0.3879 4.7275L0.5525 4.6519L0.7021 4.5787L0.8371 4.5077L0.9581 4.4388L1.0653 4.3721L1.1595 4.3074L1.2409 4.2445L1.3102 4.1835L1.3677 4.1242L1.414 4.0666L1.4495 4.0105L1.4747 3.9559L1.4901 3.9026L1.4961 3.8507L1.4933 3.7999L1.482 3.7503L1.4629 3.7017L1.4363 3.654L1.4027 3.6072L1.3626 3.5612L1.3165 3.5158L1.2649 3.4711L1.2082 3.4268L1.1469 3.3829L1.0815 3.3394L1.0124 3.2961L0.9402 3.253L0.8653 3.2099L0.7882 3.1668L0.7094 3.1236L0.6292 3.0802L0.5483 3.0365L0.4671 2.9924L0.3861 2.9479L0.3057 2.9028L0.2264 2.8571L0.1487 2.8107L0.0731 2.7634L0 2.7153L0.1807 2.6822L0.3475 2.6509L0.5005 2.6206L0.6398 2.5908L0.7654 2.5609L0.8773 2.5304L0.9758 2.4987L1.0607 2.4651L1.1324 2.4292L1.1907 2.3903L1.2358 2.3479L1.2677 2.3013L1.2867 2.2501L1.2926 2.1936L1.2856 2.1313L1.2658 2.0625L1.2332 1.9867L1.1879 1.9034L1.1301 1.8119L1.0597 1.7117L0.9769 1.6022L0.8817 1.4829L0.7742 1.353L0.6545 1.2122L0.7342 1.2602L0.8121 1.3084L0.8883 1.3565L0.9627 1.4041L1.0352 1.4507L1.1058 1.496L1.1745 1.5397L1.2411 1.5813L1.3056 1.6205L1.3679 1.6569L1.428 1.6901L1.4858 1.7197L1.5413 1.7454L1.5944 1.7668L1.645 1.7835L1.6931 1.7951L1.7386 1.8012L1.7814 1.8015L1.8215 1.7956L1.8589 1.7831L1.8935 1.7637L1.9251 1.7369L1.9538 1.7023L1.9795 1.6597L2.0022 1.6086L2.0216 1.5486L2.0379 1.4794L2.051 1.4005L2.0607 1.3117L2.0671 1.2125L2.07 1.1025L2.0695 0.9814L2.0653 0.8488L2.0576 0.7044L2.0462 0.5476L2.0311 0.3782L2.0121 0.1958L1.9893 0L2.0209 0.0056L2.0531 0.0205L2.0861 0.0439L2.1198 0.0751L2.1543 0.1134L2.1895 0.1581L2.2254 0.2084L2.2621 0.2636L2.2995 0.323L2.3377 0.3859L2.3766 0.4515L2.4164 0.5192L2.4569 0.5882L2.4981 0.6577L2.5402 0.7272L2.583 0.7958L2.6267 0.8627L2.6711 0.9275L2.7164 0.9891L2.7625 1.0471L2.8094 1.1005L2.8571 1.1488L2.9056 1.1912L2.955 1.227L3.0052 1.2554L3.0563 1.2757L3.1082 1.2872L3.161 1.2892L3.2146 1.281L3.2691 1.2618L3.3245 1.231L3.3807 1.1877L3.4379 1.1313L3.4959 1.0611L3.5548 0.9763L3.6146 0.8762L3.6754 0.7601L3.737 0.6273L3.7996 0.477L3.863 0.3085L3.9274 0.1212M5.4693 3.2141L5.4655 3.0982L5.4542 2.9844L5.4357 2.8729L5.4102 2.7641L5.378 2.6581L5.3393 2.5552L5.2944 2.4557L5.2435 2.3597L5.1868 2.2677L5.1246 2.1797L5.0572 2.0961L4.9848 2.0171L4.9076 1.943L4.8259 1.874L4.74 1.8104L4.65 1.7524L4.5562 1.7003L4.459 1.6544L4.3584 1.6148L4.2548 1.5818L4.1484 1.5557L4.0395 1.5368L3.9283 1.5252L3.815 1.5213L3.7018 1.5252L3.5906 1.5368L3.4816 1.5557L3.3753 1.5818L3.2717 1.6148L3.1711 1.6544L3.0738 1.7003L2.9801 1.7524L2.8901 1.8104L2.8041 1.874L2.7224 1.943L2.6453 2.0171L2.5728 2.0961L2.5054 2.1797L2.4433 2.2677L2.3866 2.3597L2.3357 2.4557L2.2907 2.5552L2.252 2.6581L2.2198 2.7641L2.1943 2.8729L2.1758 2.9844L2.1646 3.0982L2.1607 3.2141L2.1646 3.33L2.1758 3.4438L2.1943 3.5552L2.2198 3.6641L2.252 3.7701L2.2907 3.873L2.3357 3.9725L2.3866 4.0685L2.4433 4.1605L2.5054 4.2485L2.5728 4.3321L2.6453 4.4111L2.7224 4.4852L2.8041 4.5541L2.8901 4.6178L2.9801 4.6757L3.0738 4.7279L3.1711 4.7738L3.2717 4.8134L3.3753 4.8464L3.4816 4.8725L3.5906 4.8914L3.7018 4.903L3.815 4.9069L3.9283 4.903L4.0395 4.8914L4.1484 4.8725L4.2548 4.8464L4.3584 4.8134L4.459 4.7738L4.5562 4.7279L4.65 4.6757L4.74 4.6178L4.8259 4.5541L4.9076 4.4852L4.9848 4.4111L5.0572 4.3321L5.1246 4.2485L5.1868 4.1605L5.2435 4.0685L5.2944 3.9725L5.3393 3.873L5.378 3.7701L5.4102 3.6641L5.4357 3.5552L5.4542 3.4438L5.4655 3.33L5.4693 3.2141"/><path id="shape04" transform="matrix(0.166954573598771 -0.261009362689828 0.261009362689828 0.166954573598771 27.7892703635691 69.7662408359297)" fill="#071a03" fill-rule="evenodd" stroke="#071a03" stroke-width="1.44" stroke-linecap="square" stroke-linejoin="round" d="M59.3701 8.28L137.85 8.28L138.21 0L141.388 0.0244497L141.81 8.28L151.17 7.92L152.61 3.6L157.29 3.6L160.53 9.36L183.93 9.36L185.01 12.24L202.29 12.96L202.515 13.2596L202.741 13.551L202.967 13.8341L203.195 14.1092L203.424 14.3765L203.653 14.6359L203.884 14.8878L204.116 15.1322L204.348 15.3693L204.582 15.5992L204.816 15.8221L205.051 16.038L205.287 16.2473L205.524 16.4499L205.761 16.646L206 16.8358L206.239 17.0194L206.479 17.197L206.72 17.3687L206.961 17.5346L207.203 17.6949L207.446 17.8498L207.689 17.9993L207.934 18.1436L208.178 18.2829L208.424 18.4172L208.67 18.5468L208.916 18.6718L209.163 18.7923L209.411 18.9085L209.659 19.0204L209.908 19.1283L210.157 19.2324L210.406 19.3326L210.656 19.4292L210.907 19.5223L211.158 19.6121L211.409 19.6987L211.661 19.7823L211.913 19.8629L212.165 19.9407L212.418 20.016L212.671 20.0887L212.924 20.1591L213.178 20.2273L213.432 20.2934L213.686 20.3576L213.94 20.42L214.195 20.4808L214.45 20.5401L214.705 20.5981L214.96 20.6548L215.215 20.7105L215.47 20.7653L215.726 20.8192L215.981 20.8726L216.237 20.9254L216.492 20.9779L216.748 21.0302L217.003 21.0824L217.259 21.1347L217.515 21.1872L217.77 21.24L235.77 21.6L239.73 10.8L242.25 10.74L242.61 20.52L250.89 20.52L250.89 27.72L183.93 27.72L183.984 33.4989L159.15 34.08L158.912 34.2679L158.673 34.4493L158.435 34.6242L158.196 34.7929L157.957 34.9555L157.719 35.1121L157.48 35.2631L157.242 35.4084L157.003 35.5484L156.765 35.6831L156.526 35.8127L156.288 35.9374L156.049 36.0573L155.811 36.1727L155.572 36.2836L155.334 36.3903L155.095 36.4929L154.856 36.5915L154.618 36.6865L154.379 36.7778L154.141 36.8657L153.902 36.9503L153.664 37.0319L153.425 37.1105L153.187 37.1863L152.948 37.2596L152.71 37.3304L152.471 37.399L152.233 37.4655L151.994 37.53L151.755 37.5928L151.517 37.654L151.278 37.7137L151.04 37.7722L150.801 37.8296L150.563 37.886L150.324 37.9417L150.086 37.9968L149.847 38.0514L149.609 38.1057L149.37 38.16L148.921 37.9203L148.5 37.6845L148.104 37.4524L147.733 37.2239L147.386 36.9989L147.06 36.7775L146.755 36.5593L146.469 36.3445L146.201 36.1328L145.949 35.9242L145.713 35.7186L145.49 35.5159L145.28 35.3159L145.081 35.1187L144.892 34.9242L144.711 34.7321L144.537 34.5425L144.369 34.3552L144.205 34.1702L144.045 33.9874L143.886 33.8066L143.727 33.6277L143.567 33.4508L143.405 33.2756L143.239 33.1022L143.068 32.9303L142.89 32.76L130.29 32.04L129.933 33.1111L129.602 34.1632L129.297 35.1968L129.017 36.2121L128.762 37.2096L128.532 38.1895L128.325 39.1523L128.142 40.0982L127.982 41.0276L127.844 41.9408L127.728 42.8383L127.633 43.7203L127.56 44.5871L127.507 45.4392L127.474 46.2769L127.46 47.1005L127.466 47.9104L127.49 48.707L127.532 49.4904L127.592 50.2612L127.669 51.0197L127.763 51.7662L127.873 52.501L127.999 53.2245L128.139 53.937L128.295 54.639L128.465 55.3307L128.648 56.0125L128.845 56.6847L129.055 57.3477L129.277 58.0018L129.511 58.6473L129.756 59.2847L130.012 59.9143L130.278 60.5364L130.555 61.1513L130.841 61.7594L131.136 62.3611L131.439 62.9567L131.75 63.5465L132.069 64.1309L132.395 64.7103L132.727 65.2849L133.066 65.8551L133.41 66.4214L133.759 66.9839L134.113 67.5431L134.471 68.0994L134.832 68.653L135.197 69.2043L135.564 69.7536L135.934 70.3013L136.306 70.8478L136.678 71.3934L137.052 71.9384L137.426 72.4833L137.799 73.0282L138.172 73.5736L138.544 74.1199L138.914 74.6673L139.282 75.2162L139.648 75.767L140.01 76.32L128.97 84.84L128.399 84.1064L127.837 83.3723L127.284 82.6376L126.739 81.9021L126.202 81.1658L125.675 80.4286L125.157 79.6903L124.647 78.9509L124.148 78.2103L123.657 77.4682L123.176 76.7247L122.704 75.9796L122.242 75.2328L121.79 74.4842L121.348 73.7338L120.916 72.9813L120.493 72.2266L120.082 71.4698L119.68 70.7106L119.289 69.949L118.909 69.1848L118.539 68.418L118.18 67.6484L117.832 66.8759L117.495 66.1004L117.169 65.3219L116.854 64.5401L116.551 63.7551L116.259 62.9666L115.979 62.1746L115.71 61.379L115.454 60.5797L115.209 59.7765L114.976 58.9693L114.756 58.1581L114.547 57.3428L114.352 56.5231L114.168 55.6991L113.997 54.8706L113.839 54.0375L113.694 53.1997L113.562 52.3571L113.442 51.5096L113.336 50.657L113.243 49.7993L113.164 48.9364L113.098 48.0681L113.045 47.1943L113.007 46.315L112.982 45.43L112.971 44.5393L112.974 43.6426L112.992 42.7399L113.023 41.8312L113.07 40.9162L113.13 39.9949L113.205 39.0672L113.295 38.133L113.4 37.1921L113.52 36.2445L113.655 35.29L113.805 34.3285L113.97 33.36L92.1301 34.2L92.4901 46.8L78.0901 46.44L67.6501 59.04L65.8501 71.28L54.3301 69.84L57.9301 48.24L63.3301 37.08L63.3996 36.7125L63.4619 36.3516L63.5171 35.9971L63.5653 35.6489L63.6065 35.307L63.6411 34.9712L63.6689 34.6415L63.6902 34.3176L63.7051 33.9996L63.7137 33.6872L63.7161 33.3805L63.7124 33.0793L63.7027 32.7834L63.6872 32.4929L63.666 32.2075L63.6391 31.9273L63.6068 31.652L63.569 31.3816L63.526 31.1159L63.4778 30.8549L63.4246 30.5985L63.3665 30.3465L63.3035 30.0989L63.2359 29.8555L63.1637 29.6163L63.087 29.3811L63.006 29.1498L62.9208 28.9224L62.8314 28.6986L62.738 28.4785L62.6408 28.262L62.5398 28.0488L62.4351 27.8389L62.3269 27.6322L62.2152 27.4287L62.1003 27.2281L61.9822 27.0304L61.861 26.8355L61.7368 26.6433L61.6098 26.4536L61.4801 26.2664L61.3477 26.0816L61.2129 25.899L61.0756 25.7186L60.9361 25.5403L60.7945 25.3639L60.6508 25.1893L60.5052 25.0165L60.3578 24.8453L60.2087 24.6756L60.058 24.5074L59.9058 24.3404L59.7524 24.1747L59.5977 24.0101L59.4418 23.8465L59.285 23.6838L59.1273 23.5219L58.9689 23.3607L58.8097 23.2001L58.6501 23.04L5.1301 33.12L5.13644 32.8104L5.13721 32.4878L5.13252 32.1528L5.12245 31.806L5.10712 31.4482L5.08663 31.0799L5.06107 30.7019L5.03055 30.3147L4.99517 29.919L4.95502 29.5156L4.91021 29.1049L4.86084 28.6878L4.807 28.2648L4.74881 27.8365L4.68635 27.4037L4.61974 26.967L4.54907 26.527L4.47444 26.0844L4.39595 25.6399L4.31371 25.1941L4.2278 24.7476L4.13835 24.3011L4.04543 23.8552L3.94917 23.4107L3.84964 22.9681L3.74697 22.5281L3.64124 22.0914L3.53256 21.6586L3.42103 21.2304L3.30674 20.8074L3.18981 20.3902L3.07032 19.9796L2.94838 19.5761L2.8241 19.1805L2.69757 18.7933L2.56889 18.4152L2.43816 18.047L2.30548 17.6891L2.17096 17.3424L2.0347 17.0074L1.89679 16.6847L1.75733 16.3751L1.61643 16.0792L1.47419 15.7977L1.3307 15.5311L1.18607 15.2802L1.0404 15.0456L0.893793 14.8279L0.746342 14.6278L0.598151 14.446L0.449321 14.2831L0.299952 14.1397L0.150145 14.0166L0.0882393 13.9744L32.8501 12.48L33.0572 12.624L33.2661 12.7624L33.4769 12.8953L33.6895 13.0226L33.904 13.1443L34.1204 13.2605L34.3386 13.3712L34.5586 13.4762L34.7806 13.5757L35.0043 13.6696L35.23 13.7579L35.4575 13.8406L35.6868 13.9177L35.9181 13.9892L36.1512 14.0552L36.3861 14.1155L36.623 14.1702L36.8617 14.2193L37.1023 14.2628L37.3447 14.3007L37.589 14.3329L37.8352 14.3595L38.0833 14.3805L38.3333 14.3958L38.5851 14.4055L38.8388 14.4096L39.0944 14.408L39.3519 14.4008L39.6113 14.3879L39.8726 14.3694L40.1357 14.3451L40.4007 14.3153L40.6677 14.2797L54.9301 16.8L54.9109 16.5412L54.8827 16.2814L54.8482 16.0209L54.8097 15.76L54.7701 15.4989L54.7317 15.238L54.6972 14.9775L54.6691 14.7177L54.65 14.4589L54.6426 14.2014L54.6492 13.9455L54.6726 13.6914L54.7153 13.4395L54.7799 13.19L54.8688 12.9432L54.9848 12.6994L55.1304 12.4589L55.308 12.222L55.5204 11.9889L55.7701 11.76L55.9201 11.2972L56.085 10.8641L56.2651 10.4614L56.4608 10.0901L56.6727 9.75081L56.9009 9.44453L57.1461 9.17203L57.4086 8.93413L57.6888 8.73168L57.9871 8.5655L58.304 8.43641L58.6399 8.34525L58.9951 8.29283L59.3701 8.28M0.0882393 13.9744L0 13.9143L1.8001 14.01L1.6501 14.1L0.870105 14.07L1.3801 14.07L0.975104 13.92L0.870104 14.205L1.0951 14.115L0.360105 13.98L1.8301 13.89L0.0882393 13.9744M80.3948 35.64L92.0172 35.64L92.0172 46.32L80.3948 46.32L80.3948 35.64"/><path id="shape1" transform="matrix(0.166954573598771 -0.261009362689828 0.261009362689828 0.166954573598771 50.7372207867646 54.1375086857025)" fill="#071a03" fill-rule="evenodd" stroke="#071a03" stroke-width="1.44" stroke-linecap="square" stroke-linejoin="bevel" d="M4.47599 7.59433C1.35256 7.31161 1.23371 2.88746 0 0L3.98808 0.848528L1.46371 2.58801C0.784657 5.65223 3.33366 7.18166 4.47599 7.59433Z"/>
</svg>
