<?xml version="1.0" standalone="no"?>
<!DOCTYPE svg PUBLIC "-//W3C//DTD SVG 20010904//EN" "http://www.w3.org/TR/2001/REC-SVG-20010904/DTD/svg10.dtd">
<!-- Created using Krita: https://krita.org -->
<svg xmlns="http://www.w3.org/2000/svg" 
    xmlns:xlink="http://www.w3.org/1999/xlink"
    xmlns:krita="http://krita.org/namespaces/svg/krita"
    xmlns:sodipodi="http://sodipodi.sourceforge.net/DTD/sodipodi-0.dtd"
    width="108pt"
    height="108pt"
    viewBox="0 0 108 108">
<defs/>
<path id="shape0" transform="matrix(1.03219847633969 -0.00381757789355421 0.00389668121809984 1.05358646981253 3.46831989435011 10.3692288994171)" fill="#666666" stroke="#333333" stroke-width="2.94" stroke-linecap="round" stroke-linejoin="miter" stroke-miterlimit="1.91999995708466" d="M0 85.6073L14.1585 51.84L22.0785 54.24L35.5185 10.8L39.5985 48.72L60.9585 0L61.4385 44.16L74.1585 18.72L85.1985 56.16L94.0785 73.92L97.411 85.5225Z"/><path id="shape01" transform="matrix(1.03219847633969 -0.00381757789355421 0.00389668121809984 1.05358646981253 4.09563150824163 37.8927923299538)" fill="#333333" stroke="#333333" stroke-width="1.44" stroke-linecap="square" stroke-linejoin="miter" stroke-miterlimit="1.91999995708466" d="M26.8135 12.5582L31.5652 7.80646L34.2805 12.0491L37.1655 6.78823L38.8626 21.3829L45.3114 8.14587L52.9482 0.509117L54.8149 4.75176L58.3787 0L60.7546 4.58205L60.9243 16.8345L66.864 6.44881L72.1249 3.73352L77.3858 6.61852L83.8346 27.662L88.4166 38.1838L93.5078 47.857L97.0716 59.5667L0 59.5667L10.6915 32.9229L15.6129 31.2258L20.3647 27.662L25.2861 16.8345Z"/>
</svg>
