<?xml version="1.0" standalone="no"?>
<!DOCTYPE svg PUBLIC "-//W3C//DTD SVG 20010904//EN" "http://www.w3.org/TR/2001/REC-SVG-20010904/DTD/svg10.dtd">
<!-- Created using Krita: https://krita.org -->
<svg xmlns="http://www.w3.org/2000/svg" 
    xmlns:xlink="http://www.w3.org/1999/xlink"
    xmlns:krita="http://krita.org/namespaces/svg/krita"
    xmlns:sodipodi="http://sodipodi.sourceforge.net/DTD/sodipodi-0.dtd"
    width="96pt"
    height="96pt"
    viewBox="0 0 96 96">
<defs/>
<g id="group0" transform="translate(26.1383769662509, 8.36801033491014)" fill="none">
  <path id="shape0" transform="matrix(1.14870318163078 0 0 1.14870318163078 0 0)" fill="#333333" fill-rule="evenodd" stroke="#333333" stroke-width="1.44" stroke-linecap="round" stroke-linejoin="round" d="M0 13.8968L0.0020605 5.12199C5.72206 2.09445 10.8836 0.671227 16.8946 5.30599e-05C22.9344 -0.00960319 29.186 1.29741 33.3621 5.00199C36.8444 8.85866 38.2563 12.1687 38.0421 16.522C37.3176 24.4735 34.9149 25.3771 32.8904 27.964C30.2796 30.6334 27.4955 33.2162 25.0581 35.9723C24.2099 36.8633 24.1162 36.9927 23.5127 37.6762C22.8603 38.4075 21.7838 40.0062 21.7701 41.1074L21.7804 52.8695L12.0224 52.9543L11.8527 40.9052C12.2949 37.1693 13.8625 35.61 14.5669 34.4992C16.9988 30.8308 19.8064 28.3552 21.5371 26.8824C22.7771 25.5624 24.2021 24.442 25.4421 23.122C27.3817 21.0844 28.1899 18.9055 28.3221 16.642C27.9662 14.1399 26.6708 12.1076 24.9621 10.282C22.9221 8.26496 20.8821 8.16489 18.8421 7.64199C15.04 7.57259 11.9017 8.38813 8.76206 9.20199C5.77882 10.5658 2.76546 11.4441 0 13.8968Z"/>
  <path id="shape1" transform="matrix(1.14870318163078 0 0 1.14870318163078 13.9306281263641 65.617385532406)" fill="#333333" fill-rule="evenodd" stroke="#333333" stroke-width="1.44" stroke-linecap="round" stroke-linejoin="round" d="M0 0L9.6 0L9.6 11.88L0 11.88Z"/>
 </g>
</svg>
