<?xml version="1.0" standalone="no"?>
<!DOCTYPE svg PUBLIC "-//W3C//DTD SVG 20010904//EN" "http://www.w3.org/TR/2001/REC-SVG-20010904/DTD/svg10.dtd">
<!-- Created using Krita: https://krita.org -->
<svg xmlns="http://www.w3.org/2000/svg" 
    xmlns:xlink="http://www.w3.org/1999/xlink"
    xmlns:krita="http://krita.org/namespaces/svg/krita"
    xmlns:sodipodi="http://sodipodi.sourceforge.net/DTD/sodipodi-0.dtd"
    width="108pt"
    height="108pt"
    viewBox="0 0 108 108">
<defs/>
<path id="shape0" transform="translate(8.63205, 45.8205)" fill="#333333" fill-rule="evenodd" stroke="#333333" stroke-width="1.44" stroke-linecap="square" stroke-linejoin="bevel" d="M73.088 5.2735L85.3279 5.2735L85.3279 26.7903L73.088 26.7903L73.088 5.2735M0 0L90.7358 0L90.7358 57.0405L0 57.0405L0 0M32.2279 29.1336L32.4329 28.3381L32.6585 27.5682L32.9042 26.8237L33.1692 26.1047L33.4532 25.4112L33.755 24.7433L34.0742 24.1009L34.41 23.4841L34.7619 22.8928L35.129 22.327L35.5108 21.7868L35.9066 21.2723L36.3154 20.7832L36.7369 20.3198L37.1703 19.882L37.6148 19.4698L38.0697 19.0832L38.5346 18.7222L39.0085 18.3869L39.4911 18.0772L39.9811 17.7932L40.4785 17.5348L40.9821 17.302L41.4915 17.095L42.0059 16.9136L42.5245 16.758L43.0468 16.628L43.5723 16.5237L44.0999 16.4452L44.629 16.3923L45.1592 16.3652L45.6895 16.3639L46.2195 16.3883L46.7482 16.4384L47.2752 16.5143L47.7996 16.616L48.3208 16.7435L48.8381 16.8968L49.3509 17.0758L49.8584 17.2807L50.3601 17.5113L50.855 17.7678L51.3426 18.0502L51.8224 18.3583L52.2934 18.6923L52.755 19.0522L53.2067 19.4379L53.6476 19.8495L54.077 20.287L54.4943 20.7504L54.8989 21.2396L55.2901 21.7548L55.667 22.2959L56.0292 22.8629L56.3759 23.4558L56.7063 24.0747L57.0198 24.7195L57.3158 25.3902L57.5934 26.087L57.8523 26.8096L58.0913 27.5583L58.3102 28.333L58.508 29.1336L58.508 54.1945L32.2279 54.1945L32.2279 29.1336M5.00445 6.0377L17.2445 6.0377L17.2445 27.5545L5.00445 27.5545L5.00445 6.0377"/><path id="shape1" transform="translate(40.1952970425071, 40.8990558558719)" fill="#333333" fill-rule="evenodd" stroke="#333333" stroke-width="1.44" stroke-linecap="square" stroke-linejoin="miter" stroke-miterlimit="1.91999995708466" d="M0 1.11215e-15C4.25095 1.11215e-15 8.50191 0 12.7529 0C17.705 0 22.6572 0 27.6094 1.11215e-15L27.6094 6.1094L0 6.1094Z"/><path id="shape2" transform="translate(42.8905, 12.72)" fill="#333333" fill-rule="evenodd" stroke="#333333" stroke-width="1.44" stroke-linecap="square" stroke-linejoin="miter" stroke-miterlimit="1.91999995708466" d="M0 14.3964L11.1095 0L22.219 14.3964L22.219 28.5185L0 28.5185L0 14.3964M5.7095 15.0445L10.7304 9.3417L16.5095 15.0445L16.5095 27.2457L5.7095 27.2457L5.7095 15.0445"/><rect id="shape3" transform="translate(15.000000463353, 52.3200016161753)" fill="none" stroke="#333333" stroke-width="2.44" stroke-linecap="square" stroke-linejoin="bevel" stroke-dasharray="2.44,4.88" width="9.19158017550036" height="21.0000006486942"/><rect id="shape01" transform="matrix(0.999999978468447 0 0 0.999999978468447 82.9200001798979 51.8331153898531)" fill="none" stroke="#333333" stroke-width="2.44" stroke-linecap="square" stroke-linejoin="bevel" stroke-dasharray="2.44,4.88" width="9.48370322008783" height="20.5268852091102"/><path id="shape4" transform="translate(54, 2.71433272612204)" fill="#333333" stroke="#333333" stroke-width="1.44" stroke-linecap="round" stroke-linejoin="miter" stroke-miterlimit="1.91999995708466" d="M0 9.67418L0 0"/><path id="shape5" transform="translate(54, 2.37338095596713)" fill="#333333" fill-rule="evenodd" stroke="#333333" stroke-width="1.44" stroke-linecap="round" stroke-linejoin="round" d="M0 0C1.7191 0.749982 1.21989 0.965041 3.40292 1.57227C10.2657 -0.302963 9.39454 2.8498 11.4003 3.65117C7.7205 3.625 5.78791 7.93883 0 6.24Z"/><rect id="shape6" transform="translate(6.53470137709599, 38.1600024480533)" fill="none" stroke="#333333" stroke-width="3.96" stroke-linecap="square" stroke-linejoin="miter" stroke-miterlimit="1.91999995708466" width="27.9052987863144" height="8.03999753669951"/><path id="shape7" transform="translate(6.06000027730802, 35.0400004018689)" fill="#333333" stroke="#333333" stroke-width="2.94" stroke-linecap="square" stroke-linejoin="miter" stroke-miterlimit="2" stroke-dasharray="2.94,5.88" d="M0 7.10543e-15L28.92 0"/><rect id="shape01" transform="matrix(0.999999973620139 0 0 0.999999973620139 73.6379379547129 38.1191541792204)" fill="none" stroke="#333333" stroke-width="3.96" stroke-linecap="square" stroke-linejoin="miter" stroke-miterlimit="1.91999995708466" width="27.9052987863144" height="8.03999753669951"/><path id="shape11" transform="matrix(0.999999973620139 0 0 0.999999973620139 73.1632368674474 34.9991522153412)" fill="#333333" stroke="#333333" stroke-width="2.94" stroke-linecap="square" stroke-linejoin="miter" stroke-miterlimit="2" stroke-dasharray="2.94,5.88" d="M0 7.10543e-15L28.92 0"/>
</svg>
