<?xml version="1.0" standalone="no"?>
<!DOCTYPE svg PUBLIC "-//W3C//DTD SVG 20010904//EN" "http://www.w3.org/TR/2001/REC-SVG-20010904/DTD/svg10.dtd">
<!-- Created using Krita: https://krita.org -->
<svg xmlns="http://www.w3.org/2000/svg" 
    xmlns:xlink="http://www.w3.org/1999/xlink"
    xmlns:krita="http://krita.org/namespaces/svg/krita"
    xmlns:sodipodi="http://sodipodi.sourceforge.net/DTD/sodipodi-0.dtd"
    width="108pt"
    height="108pt"
    viewBox="0 0 108 108">
<defs/>
<path id="shape0" transform="matrix(0.707106781186548 0.707106781186548 -0.707106781186548 0.707106781186548 97.1748398037345 -0.725200144570305)" fill="none" stroke="#000000" stroke-width="3.86" stroke-linecap="round" stroke-linejoin="round" d="M9.00424 0.0114971M9.00424 107.772L3.70659 107.772L2.40456 76.6486M1.78589 61.8606L0 19.172L9.00424 0.0114971M9.21212 0L9.21212 62.2679M9.21212 76.5231L9.21212 107.76L14.5098 107.76L15.831 76.1777M16.4097 62.3461L18.2164 19.1605L9.21212 0"/><path id="shape1" transform="matrix(0.707106781186548 0.707106781186548 -0.707106781186548 0.707106781186548 18.2729258393535 71.8544320580225)" fill="none" stroke="#000000" stroke-width="3.86" stroke-linecap="square" stroke-linejoin="bevel" d="M0 0C9.71431 1.82544 18.3763 0.801271 27.1206 0L27.1206 6.72C18.1943 5.58893 9.17654 5.36625 0 6.72Z"/><path id="shape2" transform="matrix(0.707106781186548 0.707106781186548 -0.707106781186548 0.707106781186548 20.2710674585956 82.2075607298772)" fill="none" stroke="#000000" stroke-width="3.86" stroke-linecap="square" stroke-linejoin="bevel" d="M1.5311 0L8.2511 0L8.2511 15.022L8.3661 15.131L8.6218 15.414L8.8559 15.717L9.0672 16.038L9.2545 16.376L9.4163 16.73L9.5516 17.098L9.659 17.479L9.7373 17.872L9.7852 18.275L9.8015 18.687L9.7852 19.1L9.7373 19.503L9.659 19.896L9.5516 20.277L9.4163 20.645L9.2545 20.999L9.0672 21.337L8.8559 21.658L8.6218 21.961L8.3661 22.244L8.0901 22.506L7.795 22.747L7.4822 22.964L7.1529 23.156L6.8083 23.322L6.4497 23.461L6.0784 23.571L5.6957 23.651L5.3027 23.7L4.9007 23.717L4.4988 23.7L4.1058 23.651L3.723 23.571L3.3517 23.461L2.9932 23.322L2.6486 23.156L2.3192 22.964L2.0064 22.747L1.7114 22.506L1.4354 22.244L1.1797 21.961L0.9456 21.658L0.7342 21.337L0.547 20.999L0.3851 20.645L0.2498 20.277L0.1424 19.896L0.0641 19.503L0.0162 19.1L0 18.687L0.0162 18.275L0.0641 17.872L0.1424 17.479L0.2498 17.098L0.3851 16.73L0.547 16.376L0.7342 16.038L0.9456 15.717L1.1797 15.414L1.4354 15.131L1.5311 15.04L1.5311 0"/><path id="shape3" transform="matrix(0.707106781186548 0.707106781186548 -0.707106781186548 0.707106781186548 10.9800001846071 93.6599992175077)" fill="none" stroke="#000000" stroke-width="3.86" stroke-linecap="square" stroke-linejoin="miter" stroke-miterlimit="2" d="M0 0L6.36396 0"/><path id="shape4" transform="matrix(0.707106781186547 -0.707106781186548 0.707106781186548 0.707106781186547 -0.725175258874629 12.2651303904053)" fill="none" stroke="#000000" stroke-width="3.86" stroke-linecap="round" stroke-linejoin="round" d="M9.0042 0.0115L9.0042 107.772L3.7066 107.772L0 19.172L9.0042 0.0115M9.2121 0L9.2121 107.761L14.5097 107.761L18.2162 19.1605L9.2121 0"/><path id="shape5" transform="matrix(0.707106781186547 -0.707106781186548 0.707106781186548 0.707106781186547 71.8544320580224 91.1670741606465)" fill="none" stroke="#000000" stroke-width="3.86" stroke-linecap="square" stroke-linejoin="bevel" d="M0 0C9.71431 1.82544 18.3763 0.801271 27.1206 0L27.1206 6.72C18.1943 5.58893 9.17654 5.36625 0 6.72Z"/><path id="shape6" transform="matrix(0.707106781186547 -0.707106781186548 0.707106781186548 0.707106781186547 82.2075607298772 89.1689325414043)" fill="none" stroke="#000000" stroke-width="3.86" stroke-linecap="square" stroke-linejoin="bevel" d="M1.5311 0L8.2511 0L8.2511 15.022L8.3661 15.131L8.6218 15.414L8.8559 15.717L9.0672 16.038L9.2545 16.376L9.4163 16.73L9.5516 17.098L9.659 17.479L9.7373 17.872L9.7852 18.275L9.8015 18.687L9.7852 19.1L9.7373 19.503L9.659 19.896L9.5516 20.277L9.4163 20.645L9.2545 20.999L9.0672 21.337L8.8559 21.658L8.6218 21.961L8.3661 22.244L8.0901 22.506L7.795 22.747L7.4822 22.964L7.1529 23.156L6.8083 23.322L6.4497 23.461L6.0784 23.571L5.6957 23.651L5.3027 23.7L4.9007 23.717L4.4988 23.7L4.1058 23.651L3.723 23.571L3.3517 23.461L2.9932 23.322L2.6486 23.156L2.3192 22.964L2.0064 22.747L1.7114 22.506L1.4354 22.244L1.1797 21.961L0.9456 21.658L0.7342 21.337L0.547 20.999L0.3851 20.645L0.2498 20.277L0.1424 19.896L0.0641 19.503L0.0162 19.1L0 18.687L0.0162 18.275L0.0641 17.872L0.1424 17.479L0.2498 17.098L0.3851 16.73L0.547 16.376L0.7342 16.038L0.9456 15.717L1.1797 15.414L1.4354 15.131L1.5311 15.04L1.5311 0"/><path id="shape7" transform="matrix(0.707106781186547 -0.707106781186548 0.707106781186548 0.707106781186547 93.6599992175077 98.4599998153929)" fill="none" stroke="#000000" stroke-width="3.86" stroke-linecap="square" stroke-linejoin="miter" stroke-miterlimit="2" d="M0 0L6.36396 0"/>
</svg>
