<?xml version="1.0" standalone="no"?>
<!DOCTYPE svg PUBLIC "-//W3C//DTD SVG 20010904//EN" "http://www.w3.org/TR/2001/REC-SVG-20010904/DTD/svg10.dtd">
<!-- Created using Krita: https://krita.org -->
<svg xmlns="http://www.w3.org/2000/svg" 
    xmlns:xlink="http://www.w3.org/1999/xlink"
    xmlns:krita="http://krita.org/namespaces/svg/krita"
    xmlns:sodipodi="http://sodipodi.sourceforge.net/DTD/sodipodi-0.dtd"
    width="108pt"
    height="108pt"
    viewBox="0 0 108 108">
<defs/>
<path id="shape0" fill="#000000" fill-rule="evenodd" stroke="#000000" stroke-width="1.44" stroke-linecap="square" stroke-linejoin="bevel" d="M81.72 51.094L93.96 51.094L93.96 72.6108L81.72 72.6108L81.72 51.094M8.63205 45.8205L99.3679 45.8205L99.3679 102.861L8.63205 102.861L8.63205 45.8205M40.86 74.9541L41.0649 74.1586L41.2905 73.3887L41.5362 72.6442L41.8013 71.9252L42.0852 71.2317L42.387 70.5638L42.7062 69.9214L43.0421 69.3046L43.394 68.7133L43.7611 68.1475L44.1429 67.6073L44.5386 67.0928L44.9475 66.6037L45.3689 66.1403L45.8023 65.7025L46.2468 65.2903L46.7018 64.9037L47.1667 64.5427L47.6406 64.2074L48.1231 63.8977L48.6132 63.6137L49.1105 63.3553L49.6141 63.1225L50.1235 62.9155L50.6379 62.7341L51.1566 62.5785L51.6789 62.4485L52.2043 62.3442L52.7319 62.2657L53.2611 62.2128L53.7912 62.1857L54.3216 62.1844L54.8515 62.2088L55.3802 62.2589L55.9072 62.3348L56.4316 62.4365L56.9528 62.564L57.4702 62.7173L57.9829 62.8963L58.4905 63.1012L58.9921 63.3318L59.487 63.5883L59.9747 63.8707L60.4544 64.1788L60.9254 64.5128L61.3871 64.8727L61.8387 65.2584L62.2796 65.67L62.7091 66.1075L63.1264 66.5709L63.531 67.0601L63.9222 67.5753L64.2991 68.1164L64.6613 68.6834L65.0079 69.2763L65.3383 69.8952L65.6519 70.54L65.9478 71.2107L66.2255 71.9075L66.4843 72.6301L66.7234 73.3788L66.9422 74.1535L67.14 74.9541L67.14 100.015L40.86 100.015L40.86 74.9541M13.6365 51.8582L25.8765 51.8582L25.8765 73.375L13.6365 73.375L13.6365 51.8582"/><path id="shape1" transform="translate(40.1952970425071, 40.8990558558719)" fill="#000000" fill-rule="evenodd" stroke="#000000" stroke-width="1.44" stroke-linecap="square" stroke-linejoin="miter" stroke-miterlimit="1.92" d="M0 1.11215e-15C4.25095 1.11215e-15 8.50191 0 12.7529 0C17.705 0 22.6572 0 27.6094 1.11215e-15L27.6094 6.1094L0 6.1094Z"/><path id="shape2" fill="#000000" fill-rule="evenodd" stroke="#000000" stroke-width="1.44" stroke-linecap="square" stroke-linejoin="miter" stroke-miterlimit="1.92" d="M42.8905 27.1164L54 12.72L65.1095 27.1164L65.1095 41.2385L42.8905 41.2385L42.8905 27.1164M48.6 27.7645L53.6209 22.0617L59.4 27.7645L59.4 39.9657L48.6 39.9657L48.6 27.7645"/><rect id="shape3" transform="translate(15.000000463353, 52.3200016161753)" fill="none" stroke="#000000" stroke-width="2.44" stroke-linecap="square" stroke-linejoin="bevel" stroke-dasharray="2.44,4.88" width="9.19158017550036" height="21.0000006486942"/><rect id="shape0" transform="matrix(0.999999978468447 0 0 0.999999978468447 82.9200001798979 51.8331153898531)" fill="none" stroke="#000000" stroke-width="2.44" stroke-linecap="square" stroke-linejoin="bevel" stroke-dasharray="2.44,4.88" width="9.48370322008783" height="20.5268852091102"/><path id="shape4" transform="translate(54, 2.71433272612204)" fill="none" stroke="#000000" stroke-width="1.44" stroke-linecap="round" stroke-linejoin="miter" stroke-miterlimit="1.92" d="M0 9.67418L0 0"/><path id="shape5" transform="translate(54, 2.37338095596713)" fill="#000000" fill-rule="evenodd" stroke="#000000" stroke-width="1.44" stroke-linecap="round" stroke-linejoin="round" d="M0 0C1.7191 0.749982 1.21989 0.965041 3.40292 1.57227C10.2657 -0.302963 9.39454 2.8498 11.4003 3.65117C7.7205 3.625 5.78791 7.93883 0 6.24Z"/><rect id="shape6" transform="translate(6.53470137709599, 38.1600024480533)" fill="none" stroke="#000000" stroke-width="3.96" stroke-linecap="square" stroke-linejoin="miter" stroke-miterlimit="1.92" width="27.9052987863144" height="8.03999753669951"/><path id="shape7" transform="translate(6.06000027730802, 35.0400004018689)" fill="none" stroke="#000000" stroke-width="2.94" stroke-linecap="square" stroke-linejoin="miter" stroke-miterlimit="2" stroke-dasharray="2.94,5.88" d="M0 7.10543e-15L28.92 0"/><rect id="shape01" transform="matrix(0.999999973620139 0 0 0.999999973620139 73.6379379547129 38.1191541792204)" fill="none" stroke="#000000" stroke-width="3.96" stroke-linecap="square" stroke-linejoin="miter" stroke-miterlimit="1.91999995708466" width="27.9052987863144" height="8.03999753669951"/><path id="shape1" transform="matrix(0.999999973620139 0 0 0.999999973620139 73.1632368674474 34.9991522153412)" fill="none" stroke="#000000" stroke-width="2.94" stroke-linecap="square" stroke-linejoin="miter" stroke-miterlimit="2" stroke-dasharray="2.94,5.88" d="M0 7.10543e-15L28.92 0"/>
</svg>
